<?xml version="1.0" encoding="UTF-8"?><svg id="uuid-5c36658a-5194-465a-b02d-51d409cb06c6" xmlns="http://www.w3.org/2000/svg" xmlns:xlink="http://www.w3.org/1999/xlink" viewBox="0 0 1300 350"><defs><style>.uuid-711261cc-9558-460d-887d-d2e81ee58cca{fill:url(#uuid-f0a30086-2749-4896-bc45-e74dd863f5ad);}.uuid-9847d4b2-ebfd-4a49-b09b-8af479f2e423{fill:url(#uuid-bca84e14-36c5-470b-932d-b63d5bac58a7);}.uuid-82a3bed9-bb4a-4c16-8004-22d59d03eb1d{fill:none;}.uuid-78c93a25-10e4-48b7-8cdd-467bbfd33adb{fill:#d6f3ff;}</style><linearGradient id="uuid-bca84e14-36c5-470b-932d-b63d5bac58a7" x1="147.66" y1="310.21" x2="147.66" y2="119.87" gradientTransform="matrix(1, 0, 0, 1, 0, 0)" gradientUnits="userSpaceOnUse"><stop offset="0" stop-color="#40aadb"/><stop offset="1" stop-color="#a5e2eb"/></linearGradient><linearGradient id="uuid-f0a30086-2749-4896-bc45-e74dd863f5ad" x1="569.17" y1="290.07" x2="512.56" y2="233.46" gradientTransform="translate(409.42 -461.05) rotate(90)" xlink:href="#uuid-bca84e14-36c5-470b-932d-b63d5bac58a7"/></defs><g id="uuid-36169fa3-21e8-4497-806a-f81946396fad"><g><rect class="uuid-82a3bed9-bb4a-4c16-8004-22d59d03eb1d" width="1300" height="350"/><g><g><path class="uuid-78c93a25-10e4-48b7-8cdd-467bbfd33adb" d="M427.43,120.07v24.68h-56.67v113.54h-24.68v-113.54h-56.67v-24.68h138.03Z"/><path class="uuid-78c93a25-10e4-48b7-8cdd-467bbfd33adb" d="M494.76,165.88v93.99h-24.68v-96.56c-1.19-8.69-8.1-15.6-16.78-16.78h-5.53v-24.49h5.33v.2c5.92,.4,11.65,1.97,16.78,4.54,8.69,4.34,15.8,11.45,19.94,20.14,1.38,2.96,2.57,6.12,3.36,9.28,.79,3.16,1.19,6.52,1.19,10.07l.39-.39Z"/><path class="uuid-78c93a25-10e4-48b7-8cdd-467bbfd33adb" d="M538.79,188.98c0,24.49,19.94,44.43,44.43,44.43h44.43v-51.14h24.68v75.83h-69.11c-38.11,0-69.11-31-69.11-69.11s31-69.11,69.11-69.11h69.11v24.68h-69.11c-24.49,0-44.43,19.94-44.43,44.43Z"/><path class="uuid-78c93a25-10e4-48b7-8cdd-467bbfd33adb" d="M805.36,258.09h-27.65l-12.64-24.68-30.21-59.24-30.21,59.24-12.64,24.68h-27.64l12.64-24.68,57.86-113.54,57.86,113.54,12.64,24.68Z"/><path class="uuid-78c93a25-10e4-48b7-8cdd-467bbfd33adb" d="M955.42,119.87v138.22h-24.68v-88.07l-24.29,18.56-20.14,15.6-20.14-15.6-24.29-18.56v88.07h-24.68V119.87l24.68,18.96,44.43,34.16,44.43-34.16,24.68-18.96Z"/><path class="uuid-78c93a25-10e4-48b7-8cdd-467bbfd33adb" d="M999.84,157.19v12.84h88.86v24.68h-88.86v26.06c0,6.91,5.73,12.64,12.64,12.64h100.9v24.68h-100.9c-20.54,0-37.12-16.78-37.12-37.32v-63.58c0-20.54,16.59-37.32,37.12-37.32h100.9v24.68h-100.9c-6.91,0-12.64,5.73-12.64,12.64Z"/><path class="uuid-78c93a25-10e4-48b7-8cdd-467bbfd33adb" d="M1239.16,158.18v-.79c0-6.91-5.73-12.64-12.64-12.64h-56.08c-6.91,0-12.64,5.73-12.64,12.64v.79c0,6.91,5.73,12.64,12.64,12.64h49.76c12.84,0,24.29,5.53,32.19,14.22,.59,.59,.99,1.18,1.58,1.78,6.12,7.5,9.87,17.18,9.87,27.64,0,24.09-19.55,43.64-43.64,43.64h-43.24c-24.09,0-43.64-19.55-43.64-43.64h24.68c0,10.47,8.49,18.96,18.96,18.96h43.24c10.47,0,19.15-8.49,19.15-18.96s-8.69-18.96-19.15-18.96h-49.76c-10.07,0-19.15-3.95-25.87-10.47-1.78-1.78-3.36-3.75-4.74-5.92-4.15-5.92-6.52-13.23-6.52-21.13v-.79c0-20.54,16.59-37.32,37.12-37.32h56.08c20.54,0,37.32,16.78,37.32,37.32v.79l-24.68,.2Z"/><rect class="uuid-78c93a25-10e4-48b7-8cdd-467bbfd33adb" x="590.76" y="182.28" width="24.63" height="24.63" transform="translate(39.03 483.43) rotate(-45)"/></g><g><path class="uuid-9847d4b2-ebfd-4a49-b09b-8af479f2e423" d="M226.5,119.87l-32.17,32.17c11.94,11.94,19.33,28.44,19.33,46.67,0,36.45-29.55,66-66,66s-66-29.55-66-66c0-18.23,7.39-34.73,19.33-46.67l-32.17-32.17c-20.18,20.18-32.66,48.05-32.66,78.84,0,61.58,49.92,111.5,111.5,111.5s111.5-49.92,111.5-111.5c0-30.79-12.48-58.66-32.66-78.84Z"/><rect class="uuid-711261cc-9558-460d-887d-d2e81ee58cca" x="119.17" y="51.69" width="56.97" height="56.25" transform="translate(-13.19 127.79) rotate(-45)"/></g></g></g></g></svg>